# xmcd
#
# Track frame offsets:
#	150
#	15561
#	35164
#	52313
#	67475
#	85885
#	98880
#	110793
#	127004
#	143642
#	158499
#	186153
#	239269
#	256526
#
# Disc length: 4250 seconds
#
# Revision: 1
# Processed by: cddbd v1.5.2PL0 Copyright (c) Steve Scherf et al.
# Submitted via: audiograbber 1.83.01
#
DISCID=c810980e
DTITLE=Various Artist - AUDIO 2018-05 - AUDIOphile Pearls Volume 24 [Audio Ref
DTITLE=erence]
DYEAR=2018
DGENRE=Audiophile
TTITLE0=Micke Björklof and Blue Strip - Jungle Cat
TTITLE1=Danielle Nicole - Cry No More
TTITLE2=Julian Lage - Atlantic Limited
TTITLE3=Philipp Frankhauser - I'll Be Around
TTITLE4=Laura Veirs - Seven Falls
TTITLE5=Chris Smither - The Blame's On Me
TTITLE6=Ellen Doty - You're Too Late
TTITLE7=Mary Chapin Carpenter - What Does It Mean To Travel
TTITLE8=Stefanie Boltz - Naked Pony Ride
TTITLE9=Theo Lawrence and The Hearts - Count Me In Tomorrow
TTITLE10=William Byrd - The Woods So Wild [Margret Köll - Barockharfe and Luca Pi
TTITLE10=anca - Laute]
TTITLE11=Wolfgang Amadeus Mozart - Streichquartett G-Dur KV 387, 1. Satz Allegr
TTITLE11=o vivace assai [Auryn Quartett]
TTITLE12=Johann Sebastian Bach - Johannespassion BWV 245, Aria [Camilla Nylund 
TTITLE12=Sopram and Kammerchor Frauenkirche Dresden]
TTITLE13=Carl Frühling - Fantasie für Flöte op. 55 [Helen Dabringhaus - Flöte &
TTITLE13=Sebastian Berakdar - Klavier]
EXTD=
EXTT0=
EXTT1=
EXTT2=
EXTT3=
EXTT4=
EXTT5=
EXTT6=
EXTT7=
EXTT8=
EXTT9=
EXTT10=
EXTT11=
EXTT12=
EXTT13=
PLAYORDER=
